<svg version="1" xmlns="http://www.w3.org/2000/svg" width="346.667" height="346.667" viewBox="0 0 260.000000 260.000000"><path d="M0 130v130h260V0H0v130zm92.4-56.8c.9 2.4 11.9 32.6 24.5 67.3l22.9 63-9.1.3c-4.9.1-9.3-.1-9.7-.5-.4-.4-3.6-9-7.1-19.1l-6.4-18.2h-57l-6.6 18.8-6.6 18.7-9.6.3-9.7.3 3.9-10.8c2.1-5.9 13-35.8 24-66.3C57 96.5 66.3 70.9 66.5 70.2c.3-.9 3.7-1.2 12.4-1.2h11.9l1.6 4.2zm85.6 55.3V188h67v16h-85V69h18v59.5z"/><path d="M67.5 118.2c-5.9 16.7-11 30.9-11.3 31.5-.3 1 4.7 1.3 22.8 1.3 18.2 0 23.1-.3 22.7-1.3-.2-.6-5.3-14.8-11.2-31.5C84.5 101.6 79.4 88 79 88c-.4 0-5.5 13.6-11.5 30.2z"/></svg>